<?xml version="1.0" encoding="utf-8"?>
<svg id="vectorized" viewBox="0 0 500 500" xmlns="http://www.w3.org/2000/svg">
  <defs>
    <style>.cls-1{fill:#4c96d7;}.cls-2{fill:#1d2936;}</style>
  </defs>
  <title>tejada</title>
  <circle style="fill: rgb(255, 255, 255);" cx="250.184" cy="250.941" r="212.718"/>
  <path class="cls-1" d="M 250.183 497.266 C 59.837 497.266 -59.131 291.21 36.042 126.366 C 131.215 -38.479 369.147 -38.479 464.321 126.366 C 520.277 223.286 504.161 345.707 425.026 424.842 C 378.757 471.367 315.798 497.446 250.183 497.266 Z M 250.183 39.037 C 133.859 39.037 39.221 133.676 39.221 249.999 C 39.221 366.323 133.859 460.961 250.183 460.961 C 366.506 460.961 461.144 366.323 461.144 249.999 C 461.144 133.676 366.506 39.037 250.183 39.037 Z" style="fill-rule: nonzero; paint-order: fill;"/>
  <path class="cls-2" d="M 369.538 351.555 L 130.827 351.555 C 120.069 351.544 111.351 342.826 111.34 332.068 L 111.34 167.93 C 111.351 157.172 120.069 148.454 130.827 148.443 L 369.538 148.443 C 380.296 148.454 389.014 157.172 389.025 167.93 L 389.025 332.068 C 389.014 342.826 380.296 351.544 369.538 351.555 Z M 145.683 317.213 L 354.682 317.213 L 354.682 182.786 L 145.683 182.786 Z" style=""/>
  <polygon class="cls-1" points="209.855 271.557 181.007 241.59 209.914 212.674 216.861 219.621 194.744 241.728 216.919 264.747 209.855 271.557" style=""/>
  <polygon class="cls-1" points="290.511 271.557 283.446 264.747 305.621 241.728 283.515 219.621 290.442 212.674 319.359 241.59 290.511 271.557" style=""/>
  <rect class="cls-1" x="448.014" y="364.032" width="82.246" height="9.812" transform="matrix(0.298208, -0.954501, 0.954501, 0.298208, -249.31546, 600.951477)" style=""/>
  <rect class="cls-2" x="184.441" y="364.802" width="133.446" height="23.549" rx="8.45" style=""/>
</svg>
